<svg xmlns="http://www.w3.org/2000/svg" fill="none" viewBox="0 0 48 48">
  <path fill="url(#a)" d="M46.475 21.199A18.014 18.014 0 0 0 46 18.45a16.814 16.814 0 0 0-1.236-3.287 18.306 18.306 0 0 0-2.301-3.525c-.382-.46-.802-.907-1.25-1.341.671-2.67-.815-4.984-.815-4.984-2.564-.158-4.195.802-4.8 1.236-.105-.04-.197-.092-.302-.131a18.123 18.123 0 0 0-1.355-.487c-.46-.145-.934-.276-1.42-.395-.487-.118-.973-.21-1.473-.289l-.263-.04C29.668 1.632 26.459.132 26.459.132 22.87 2.407 22.2 5.59 22.2 5.59l-.04.184c-.197.053-.394.118-.592.171a8.559 8.559 0 0 0-.815.29c-.276.105-.54.21-.815.328-.54.237-1.079.5-1.605.79a21.95 21.95 0 0 0-1.499.933l-.131-.053c-4.971-1.893-9.377.382-9.377.382-.408 5.286 1.986 8.613 2.46 9.218-.119.33-.224.658-.33.987a22.809 22.809 0 0 0-.88 4.247c-4.603 2.275-5.958 6.918-5.958 6.918 3.827 4.405 8.298 4.681 8.298 4.681l.013-.013a20.205 20.205 0 0 0 1.96 2.88c.316.381.631.737.973 1.092-1.394 3.997.197 7.311.197 7.311 4.261.158 7.062-1.867 7.654-2.327.42.144.855.276 1.289.381 1.315.342 2.656.54 3.998.592.328.013.67.026.999.013h.473l.21-.013v.013c2.013 2.867 5.537 3.274 5.537 3.274 2.512-2.643 2.657-5.273 2.657-5.838v-.237a14.576 14.576 0 0 0 1.499-1.197c1-.907 1.88-1.946 2.617-3.064l.197-.316c2.84.158 4.853-1.762 4.853-1.762-.474-2.959-2.157-4.405-2.512-4.681 0 0-.013-.014-.04-.027-.026-.013-.026-.026-.026-.026-.013-.013-.04-.026-.066-.04l.04-.539c.026-.315.026-.644.026-.96v-.499l-.013-.198-.013-.263c0-.092-.013-.17-.026-.25-.014-.078-.014-.17-.027-.25l-.026-.25-.04-.25a12.66 12.66 0 0 0-.184-.972 12.925 12.925 0 0 0-1.446-3.577 12.076 12.076 0 0 0-2.407-2.867 11.975 11.975 0 0 0-6.391-2.906 10.491 10.491 0 0 0-1.696-.092H30.773l-.21.013c-.08 0-.158.013-.224.013a9.36 9.36 0 0 0-3.985 1.302 9.603 9.603 0 0 0-2.406 2.051 9.387 9.387 0 0 0-1.526 2.578 9.069 9.069 0 0 0-.605 2.761c-.013.224-.013.46-.013.684v.171l.013.184c.013.105.013.224.026.33a7.183 7.183 0 0 0 1.381 3.616 7.36 7.36 0 0 0 1.697 1.63c.618.421 1.288.724 1.946.92a6.733 6.733 0 0 0 1.933.277H29.142c.04 0 .079 0 .119-.013.065 0 .131-.013.197-.013.013 0 .04 0 .052-.014l.066-.013c.04 0 .079-.013.118-.013.08-.013.145-.026.224-.04a.981.981 0 0 0 .21-.052c.145-.026.277-.079.408-.118.263-.092.526-.197.75-.316.236-.118.447-.263.657-.394.053-.04.119-.08.171-.132a.5.5 0 0 0 .08-.697.485.485 0 0 0-.619-.118l-.158.079a4.26 4.26 0 0 1-1.183.394c-.106.013-.21.027-.33.04-.052 0-.104.013-.17.013h-.316c-.066 0-.131 0-.197-.013h-.079c-.026 0-.066 0-.092-.014-.066-.013-.118-.013-.184-.026a5.114 5.114 0 0 1-1.433-.42c-.474-.211-.921-.5-1.329-.869a5.007 5.007 0 0 1-1.604-2.933 4.966 4.966 0 0 1-.053-.88c0-.08.014-.158.014-.237V26.433c0-.04.013-.08.013-.119.013-.157.04-.315.065-.473a6.328 6.328 0 0 1 1.828-3.432c.25-.237.513-.447.79-.645a6.13 6.13 0 0 1 1.867-.868c.329-.092.67-.144 1.026-.184.17-.013.341-.026.526-.026h.408l.144.013c.381.026.75.079 1.118.171a7.89 7.89 0 0 1 2.13.802c1.342.75 2.486 1.907 3.183 3.301a7.345 7.345 0 0 1 .789 2.814l.013.145.013.145v.565c0 .092-.013.25-.013.342-.013.21-.04.434-.066.644-.026.21-.066.421-.105.632-.04.21-.092.42-.145.618-.105.407-.237.815-.394 1.223a10.708 10.708 0 0 1-1.237 2.249 10.168 10.168 0 0 1-3.971 3.248 9.593 9.593 0 0 1-2.472.75 8.4 8.4 0 0 1-1.29.13h-.657c-.236 0-.46-.012-.697-.039a13.744 13.744 0 0 1-2.722-.486 13.79 13.79 0 0 1-2.551-1.026c-1.618-.868-3.077-2.051-4.208-3.485a13.562 13.562 0 0 1-1.473-2.288 13.589 13.589 0 0 1-.973-2.512A13.882 13.882 0 0 1 14.953 26l-.014-.171v-1.171a15.743 15.743 0 0 1 .33-2.695c.091-.447.196-.895.328-1.342.25-.88.565-1.736.934-2.538.75-1.604 1.722-3.038 2.893-4.182.29-.29.591-.552.907-.815.316-.25.645-.487.986-.71.33-.224.684-.421 1.04-.605.17-.092.354-.184.538-.263.093-.04.185-.08.277-.118l.276-.119c.368-.158.75-.29 1.144-.408.092-.026.197-.052.29-.092.091-.026.197-.052.289-.079.197-.052.394-.105.591-.144.092-.027.198-.04.303-.066.105-.026.197-.04.302-.066.105-.013.198-.04.303-.052l.144-.027.158-.026.303-.04c.118-.012.223-.026.342-.039.092-.013.25-.026.342-.04.065-.012.144-.012.21-.026l.145-.013.065-.013h.08c.118-.013.223-.013.341-.026l.171-.013h.132c.092 0 .197-.014.289-.014a15.505 15.505 0 0 1 3.393.25 15.81 15.81 0 0 1 4.077 1.355 16.134 16.134 0 0 1 3.327 2.17c.065.052.118.105.184.158.052.052.118.105.17.157.12.106.224.21.343.316.118.105.223.21.328.316.106.105.21.21.316.328a16.965 16.965 0 0 1 2.801 3.932l.08.158c.025.053.052.105.078.158.053.105.105.21.145.316.052.105.092.197.144.302.04.105.092.197.132.303.158.394.315.776.434 1.13.197.58.342 1.092.46 1.54a.35.35 0 0 0 .395.275.363.363 0 0 0 .342-.368c.013-.473 0-1.039-.066-1.683Z"/>
  <defs>
    <linearGradient id="a" x1="24.579" x2="24.579" y1="14.4" y2="48" gradientUnits="userSpaceOnUse">
      <stop stop-color="#F05A28"/>
      <stop offset="1" stop-color="#FBCA0A"/>
      <stop offset="1" stop-color="#FBCA0A"/>
    </linearGradient>
  </defs>
</svg>